<?xml version="1.0" encoding="utf-8"?>
<svg xmlns="http://www.w3.org/2000/svg" viewBox="20.6081 20.4446 470.9262 471.0964" width="470.926px" height="471.096px">
  <path d="M0 0 C3.87739235 0.00915362 7.75471623 -0.00496963 11.63209438 -0.01591969 C19.20367928 -0.03360089 26.77510456 -0.02991171 34.34669542 -0.01826912 C40.50649818 -0.00919378 46.66625657 -0.00802841 52.82606411 -0.01236439 C53.70654388 -0.01297732 54.58702364 -0.01359025 55.49418461 -0.01422176 C57.28349385 -0.0155008 59.07280307 -0.01679766 60.86211228 -0.01811212 C77.59599309 -0.02948746 94.3297859 -0.01645224 111.06365228 0.00508934 C125.38682365 0.02295754 139.70986529 0.01985258 154.03303432 0.0014143 C170.71166203 -0.02004647 187.39021283 -0.0283891 204.06885242 -0.01613665 C205.85116353 -0.0148626 207.63347466 -0.01360512 209.41578579 -0.01236439 C210.73079482 -0.01143873 210.73079482 -0.01143873 212.07236969 -0.01049438 C218.21668653 -0.00705706 224.36095412 -0.0128347 230.50526333 -0.0222826 C238.00472788 -0.03356205 245.50402522 -0.03033871 253.0034709 -0.00915962 C256.82152177 0.00127154 260.639295 0.00561039 264.4573431 -0.00775623 C302.54074883 -0.13003033 302.54074883 -0.13003033 317.68342495 8.39789867 C318.66605312 8.92214428 318.66605312 8.92214428 319.66853237 9.45698071 C321.50376123 10.45097763 323.3152016 11.47647242 325.12092495 12.52289867 C325.9820187 13.01789867 326.84311245 13.51289867 327.73029995 14.02289867 C346.83291996 25.94510123 358.75754955 45.02082654 364.4295187 66.43696117 C365.54165721 71.40074321 366.24565982 76.11656635 366.25514603 81.20846462 C366.25960387 82.32399692 366.26406171 83.43952921 366.26865464 84.58886552 C366.2683781 86.41188789 366.2683781 86.41188789 366.26809597 88.27173901 C366.27177266 89.57090213 366.27544935 90.87006525 366.27923745 92.20859694 C366.28922506 95.80879498 366.29296903 99.40897635 366.29562676 103.00918627 C366.29953961 106.89494912 366.30911743 110.78069889 366.31783962 114.66645336 C366.33757924 124.04936273 366.34766833 133.43227313 366.35656741 142.81519806 C366.36095554 147.23996972 366.36632109 151.6647402 366.37155628 156.08951092 C366.38856816 170.81017972 366.40305967 185.5308478 366.41030502 200.25152493 C366.41221475 204.06952191 366.4141351 207.8875189 366.41609097 211.70551586 C366.41657471 212.65439799 366.41705845 213.60328012 366.41755684 214.58091626 C366.42584716 229.93287891 366.45116736 245.28476339 366.48367164 260.63669196 C366.51681244 276.41872357 366.53476022 292.20071556 366.53794926 307.98278213 C366.54010817 316.8353887 366.54876536 325.68788138 366.57441044 334.54045391 C366.5962138 342.08410257 366.60412093 349.62760966 366.59444366 357.17128626 C366.58992629 361.01357419 366.59163357 364.85557064 366.6112051 368.6978178 C366.795066 406.90505724 366.795066 406.90505724 358.24592495 422.08539867 C357.72167934 423.06802685 357.72167934 423.06802685 357.18684292 424.0705061 C356.19284599 425.90573496 355.1673512 427.71717532 354.12092495 429.52289867 C353.62592495 430.38399242 353.13092495 431.24508617 352.62092495 432.13227367 C341.44960085 450.03178161 322.56732359 463.29095764 302.12092495 468.52289867 C293.96234661 470.39386657 286.12090936 470.81186177 277.77081203 470.79032421 C276.46737679 470.79485532 275.16394155 470.79938644 273.82100827 470.80405486 C270.2320826 470.81620019 266.64325074 470.81603448 263.05430925 470.81366611 C259.17203541 470.81325577 255.28979079 470.82431774 251.40753078 470.83378124 C243.81163773 470.85034639 236.21577574 470.85588878 228.61986613 470.857006 C222.43988178 470.85795874 216.25990761 470.86208032 210.07992649 470.86840725 C192.5280838 470.88600855 174.97626549 470.89524803 157.42441391 470.8937463 C156.47952378 470.89366639 155.53463366 470.89358648 154.5611105 470.89350414 C153.14202856 470.8933815 153.14202856 470.8933815 151.69427831 470.89325638 C136.37496127 470.89244412 121.0557427 470.91156956 105.73645412 470.93978088 C89.97685903 470.96857213 74.21731186 470.9823177 58.45768982 470.98059332 C49.62193201 470.9799315 40.7862774 470.98533192 31.9505434 471.00694942 C24.42530698 471.02524374 16.90022052 471.02944145 9.37497138 471.01593058 C5.54278076 471.00944182 1.71087712 471.00913339 -2.12128544 471.02663708 C-40.27365617 471.19004369 -40.27365617 471.19004369 -55.44157505 462.64789867 C-56.42420322 462.12365307 -56.42420322 462.12365307 -57.42668247 461.58881664 C-59.26191133 460.59481972 -61.0733517 459.56932493 -62.87907505 458.52289867 C-64.17071568 457.78039867 -64.17071568 457.78039867 -65.48845005 457.02289867 C-84.91037309 444.90141479 -97.72845554 424.60945352 -102.87907505 402.52289867 C-104.10737632 395.90438543 -104.02430873 389.3498929 -104.01951694 382.63361645 C-104.02248807 381.33148221 -104.02545919 380.02934796 -104.02852035 378.68775511 C-104.0365594 375.08402216 -104.03837819 371.48030917 -104.03911781 367.87656832 C-104.04097381 363.98542882 -104.04852395 360.09429956 -104.05525303 356.20316601 C-104.06881557 347.69871378 -104.07485802 339.19426627 -104.07926369 330.68980503 C-104.08203002 325.37473355 -104.08626812 320.05966388 -104.09076786 314.74459362 C-104.10295855 300.01529842 -104.11325778 285.28600466 -104.11664295 270.55670452 C-104.11686252 269.6145882 -104.11708208 268.67247188 -104.1173083 267.70180658 C-104.11763572 266.28533443 -104.11763572 266.28533443 -104.11796975 264.84024668 C-104.11841321 262.92684682 -104.11885977 261.01344697 -104.11930943 259.10004711 C-104.11953086 258.15094355 -104.11975228 257.20183999 -104.11998042 256.22397572 C-104.1239255 240.85713236 -104.14137154 225.49033651 -104.16466895 210.12351149 C-104.18842046 194.32903224 -104.20084656 178.53457679 -104.20201087 162.7400794 C-104.20292557 153.87922261 -104.20862607 145.01842769 -104.22683048 136.15758801 C-104.24228293 128.6098672 -104.24732179 121.0622274 -104.23909238 113.51449376 C-104.23520381 109.66856972 -104.23602691 105.82280854 -104.25014973 101.97690487 C-104.26536913 97.79383755 -104.25696913 93.61113214 -104.24656773 89.42805004 C-104.25462413 88.23141405 -104.26268054 87.03477805 -104.27098107 85.80188036 C-104.20480889 74.35216014 -102.57812702 62.70832826 -97.62907505 52.27289867 C-97.3238895 51.60870922 -97.01870396 50.94451977 -96.70427036 50.26020336 C-86.46994743 28.51884107 -69.34543692 12.90716325 -46.87907505 4.52289867 C-31.5596845 -0.4220168 -15.92969657 -0.05576837 0 0 Z M-48.87907505 56.52289867 C-59.54563546 69.47346871 -61.03515212 82.59251622 -61.01278782 98.83094311 C-61.01505338 100.04635918 -61.01731893 101.26177525 -61.01965314 102.51402211 C-61.02486678 105.86627684 -61.02564173 109.21847768 -61.02445877 112.57073259 C-61.02425386 116.19458266 -61.02978203 119.81842487 -61.03451633 123.44227123 C-61.04280407 130.53409792 -61.04557032 137.62591629 -61.04612871 144.71774742 C-61.04660476 150.48544318 -61.04866393 156.25313621 -61.05182934 162.02083111 C-61.06063075 178.392389 -61.06524951 194.76394036 -61.06449886 211.13550064 C-61.06445891 212.01712129 -61.06441895 212.89874194 -61.06437778 213.80707836 C-61.0643369 214.68978201 -61.06429602 215.57248567 -61.0642539 216.48193792 C-61.06384757 230.78301776 -61.07341532 245.08407126 -61.08751615 259.38514349 C-61.10189823 274.08808441 -61.10878533 288.79101249 -61.10792238 303.49396062 C-61.10759104 311.74102183 -61.11031022 319.98805543 -61.12110043 328.23511028 C-61.13022955 335.25728489 -61.13236092 342.27941934 -61.125591 349.30159733 C-61.12233796 352.87991933 -61.12222486 356.45816442 -61.13094425 360.036479 C-61.14032556 363.92666098 -61.13400157 367.81673213 -61.12631321 371.70691967 C-61.13145677 372.82241625 -61.13660034 373.93791282 -61.14189976 375.08721232 C-61.08125041 389.0452969 -59.12887068 401.40150989 -50.62907505 412.83539867 C-37.78413477 425.38840849 -23.87593088 427.68015455 -6.60862827 427.65661144 C-5.38519396 427.658877 -4.16175964 427.66114256 -2.90125155 427.66347677 C0.47799611 427.66869633 3.8571904 427.66946433 7.23643827 427.66828239 C10.88755356 427.66807771 14.53866101 427.67360359 18.18977261 427.67833996 C25.33688044 427.68663248 32.48398003 427.68939417 39.63109228 427.68995234 C45.44315694 427.69042817 51.25521888 427.69248628 57.06728268 427.69565296 C73.56048943 427.70445579 90.05368969 427.70907293 106.54689881 427.70832249 C107.87953296 427.70826255 107.87953296 427.70826255 109.23908901 427.70820141 C110.12860171 427.70816053 111.0181144 427.70811965 111.93458202 427.70807753 C126.34633187 427.70767118 140.75805558 427.71723876 155.16979787 427.73133978 C169.98231349 427.74571808 184.79481637 427.75260916 199.60733914 427.751746 C207.9175405 427.75141453 216.22771445 427.75413973 224.53790951 427.76492405 C231.61393562 427.77404821 238.6899219 427.77618861 245.76595137 427.76941463 C249.37249603 427.76615905 252.97896436 427.76605776 256.58550167 427.77476788 C260.50455059 427.78413495 264.42348919 427.77783174 268.3425436 427.77013683 C270.03285375 427.77785218 270.03285375 427.77785218 271.75731158 427.78572339 C285.35197931 427.7269636 297.3120779 425.56228467 308.43342495 417.27289867 C321.26770439 404.14014762 323.27892911 389.85251013 323.25463772 372.21485424 C323.25690327 370.99943817 323.25916883 369.7840221 323.26150304 368.53177524 C323.26671668 365.17952051 323.26749163 361.82731967 323.26630867 358.47506475 C323.26610376 354.85121468 323.27163193 351.22737248 323.27636623 347.60352612 C323.28465397 340.51169943 323.28742022 333.41988105 323.28797861 326.32804993 C323.28845466 320.56035417 323.29051383 314.79266114 323.29367924 309.02496624 C323.30248065 292.65340834 323.30709941 276.28185699 323.30634876 259.91029671 C323.30630881 259.02867606 323.30626885 258.14705541 323.30622768 257.23871899 C323.3061868 256.35601533 323.30614592 255.47331168 323.3061038 254.56385943 C323.30569747 240.26277959 323.31526521 225.96172609 323.32936605 211.66065386 C323.34374813 196.95771294 323.35063523 182.25478486 323.34977227 167.55183673 C323.34944094 159.30477551 323.35216012 151.05774192 323.36295033 142.81068707 C323.37207945 135.78851246 323.37421082 128.76637801 323.3674409 121.74420002 C323.36418786 118.16587801 323.36407476 114.58763292 323.37279415 111.00931835 C323.38217546 107.11913636 323.37585147 103.22906522 323.36816311 99.33887768 C323.37587845 97.66563281 323.37587845 97.66563281 323.38374966 95.95858502 C323.32310031 82.00050045 321.37072058 69.64428746 312.87092495 58.21039867 C300.02598467 45.65738885 286.11778078 43.36564279 268.85047817 43.38918591 C267.0153267 43.38578757 267.0153267 43.38578757 265.14310145 43.38232058 C261.76385379 43.37710101 258.3846595 43.37633302 255.00541162 43.37751496 C251.35429634 43.37771964 247.70318889 43.37219376 244.05207729 43.36745739 C236.90496946 43.35916487 229.75786987 43.35640318 222.61075762 43.35584501 C216.79869296 43.35536918 210.98663102 43.35331107 205.17456722 43.35014439 C188.68136047 43.34134155 172.18816021 43.33672442 155.69495109 43.33747486 C154.36231694 43.33753479 154.36231694 43.33753479 153.00276089 43.33759594 C152.11324819 43.33763682 151.2237355 43.3376777 150.30726787 43.33771982 C135.89551803 43.33812616 121.48379432 43.32855858 107.07205203 43.31445757 C92.25953641 43.30007927 77.44703353 43.29318819 62.63451076 43.29405135 C54.3243094 43.29438282 46.01413545 43.29165762 37.70394039 43.2808733 C30.62791428 43.27174914 23.551928 43.26960874 16.47589853 43.27638272 C12.86935387 43.2796383 9.26288554 43.27973959 5.65634823 43.27102947 C1.73729931 43.2616624 -2.18163929 43.26796561 -6.1006937 43.27566051 C-7.22756714 43.27051695 -8.35444057 43.26537339 -9.51546168 43.26007396 C-24.02789334 43.32280057 -38.3238045 45.72215672 -48.87907505 56.52289867 Z " transform="matrix(0.9999999999999999, 0, 0, 0.9999999999999999, 124.87907409667967, 20.47710227966307)" style="fill: rgb(0, 191, 255);"/>
  <path d="M0 0 C0.85980469 -0.03996094 1.71960938 -0.07992187 2.60546875 -0.12109375 C14.32929056 1.92093612 21.76230787 10.73038221 29.6953125 18.83203125 C31.0027136 20.14877384 32.31123496 21.46440499 33.62081909 22.77897644 C37.04154408 26.2186657 40.446976 29.67310708 43.8493042 33.13098145 C47.33302692 36.66612556 50.83119391 40.18691399 54.328125 43.70898438 C61.17035761 50.60461784 67.99649927 57.51594322 74.8125 64.4375 C78.79635934 62.83880322 81.44374239 60.05474323 84.38793945 57.04150391 C84.93323303 56.4916835 85.47852661 55.9418631 86.04034424 55.37538147 C87.22164132 54.1831427 88.40065396 52.98863705 89.577631 51.79213333 C91.44405994 49.89548789 93.31713351 48.00564288 95.19218445 46.11752319 C100.52140036 40.74860647 105.83789372 35.36715495 111.15112305 29.98242188 C114.40428196 26.6864187 117.6648219 23.39786035 120.929739 20.11350632 C122.16895459 18.86375891 123.40524896 17.61110755 124.63848305 16.35545731 C126.36842632 14.59412804 128.10756837 12.84236908 129.84887695 11.09228516 C130.60118843 10.3190818 130.60118843 10.3190818 131.36869812 9.53025818 C136.80934543 4.10349441 142.67493847 0.31169452 150.4375 0.125 C157.14443093 0.20522645 161.64931266 1.45789049 166.5625 6.0859375 C171.79009851 11.8413224 173.30984618 16.93342397 173.11328125 24.671875 C171.65270123 38.10162376 156.84034978 48.55196242 147.77734375 57.5703125 C146.64655383 58.69923193 145.51598849 59.82837636 144.38563538 60.95773315 C141.44359937 63.89599364 138.49857073 66.83123586 135.55285645 69.76580811 C132.53403534 72.77430688 129.51812616 75.78572182 126.50195312 78.796875 C120.60827623 84.67990243 114.71142693 90.55973682 108.8125 96.4375 C110.4017178 100.37390648 113.11894969 102.993184 116.10083008 105.90527344 C116.63929062 106.43920715 117.17775116 106.97314087 117.73252869 107.52325439 C118.90021038 108.67999485 120.07015883 109.8344506 121.24210548 110.98686981 C123.10122836 112.81575993 124.95353554 114.65130659 126.80412292 116.48883057 C132.06641862 121.71144384 137.34121548 126.92136441 142.61938477 132.12792969 C145.85058608 135.3162222 149.07429003 138.51194664 152.29379845 141.71204376 C153.51759146 142.9253219 154.74428696 144.13568011 155.97400856 145.34294891 C172.83756738 161.89922471 172.83756738 161.89922471 173.125 172.625 C173.04028405 179.04646875 171.58536827 183.48722073 167.1640625 188.19140625 C162.27701915 192.61962239 157.80497766 194.72345532 151.125 194.9375 C150.17238281 194.9890625 149.21976563 195.040625 148.23828125 195.09375 C136.90974563 192.92363143 128.87596907 183.02537911 121.1484375 175.1640625 C119.86323672 173.87138692 118.5771392 172.57960234 117.29019165 171.28866577 C113.93090841 167.91422384 110.58382095 164.52793981 107.23925781 161.13891602 C103.81402305 157.67251648 100.37721457 154.21763265 96.94140625 150.76171875 C90.22049082 143.99810511 83.51242229 137.22190527 76.8125 130.4375 C72.87609352 132.0267178 70.256816 134.74394969 67.34472656 137.72583008 C66.81079285 138.26429062 66.27685913 138.80275116 65.72674561 139.35752869 C64.57000515 140.52521038 63.4155494 141.69515883 62.26313019 142.86710548 C60.43424007 144.72622836 58.59869341 146.57853554 56.76116943 148.42912292 C51.53855616 153.69141862 46.32863559 158.96621548 41.12207031 164.24438477 C37.9337778 167.47558608 34.73805336 170.69929003 31.53795624 173.91879845 C30.3246781 175.14259146 29.11431989 176.36928696 27.90705109 177.59900856 C11.35077529 194.46256738 11.35077529 194.46256738 0.625 194.75 C-5.7909118 194.66535736 -10.27933911 193.22907537 -14.94140625 188.75390625 C-19.47307715 183.67625091 -21.47572368 180.00552673 -21.5 173.0625 C-21.51675781 171.96164062 -21.53351563 170.86078125 -21.55078125 169.7265625 C-20.15252088 157.06704385 -5.57827364 146.68887737 3.06640625 138.0859375 C4.21961636 136.93459775 5.37260197 135.78303311 6.52537537 134.6312561 C9.52659553 131.6338125 12.53080855 128.63938687 15.53570557 125.64562988 C18.61484863 122.57680683 21.69108179 119.50506974 24.76757812 116.43359375 C30.77974541 110.43207778 36.79508507 104.43375439 42.8125 98.4375 C41.21380322 94.45364066 38.42974323 91.80625761 35.41650391 88.86206055 C34.8666835 88.31676697 34.3168631 87.77147339 33.75038147 87.20965576 C32.5581427 86.02835868 31.36363705 84.84934604 30.16713333 83.672369 C28.27048789 81.80594006 26.38064288 79.93286649 24.49252319 78.05781555 C19.12360647 72.72859964 13.74215495 67.41210628 8.35742188 62.09887695 C5.0614187 58.84571804 1.77286035 55.5851781 -1.51149368 52.320261 C-2.76124109 51.08104541 -4.01389245 49.84475104 -5.26954269 48.61151695 C-7.03087196 46.88157368 -8.78263092 45.14243163 -10.53271484 43.40112305 C-11.04818375 42.89958206 -11.56365265 42.39804108 -12.09474182 41.88130188 C-17.72480244 36.23683762 -21.32064843 30.33080966 -21.5625 22.3125 C-21.4981996 15.03047944 -19.71719363 11.04111391 -14.6953125 5.9140625 C-10.26245918 1.94057222 -5.91205218 0.14845626 0 0 Z " transform="matrix(0.9999999999999999, 0, 0, 0.9999999999999999, 180.1875, 158.56249999999997)" style="fill: rgb(0, 191, 255);"/>
</svg>