<?xml version="1.0" encoding="utf-8"?>
<svg xmlns="http://www.w3.org/2000/svg" viewBox="47.4496 47.4496 417.1009 417.1009" width="417.101px" height="417.101px">
  <path d="M0 0 C1.81036946 -0.00543426 3.62073448 -0.01256417 5.43109131 -0.02124023 C10.30306808 -0.03932158 15.17470227 -0.03246948 20.04668427 -0.01972389 C25.17257026 -0.0095168 30.29842912 -0.01901079 35.42431641 -0.02526855 C44.02837326 -0.03252268 52.63229226 -0.02301617 61.23632812 -0.00390625 C71.14927278 0.01785812 81.06188822 0.01080517 90.97482491 -0.01121187 C99.52309018 -0.02942981 108.07125701 -0.03189307 116.61953545 -0.0214572 C121.70875307 -0.01525728 126.79781653 -0.01428927 131.88702393 -0.02760315 C136.67418898 -0.03925462 141.46093426 -0.03096821 146.2480545 -0.00802612 C147.9929968 -0.00278825 149.73797512 -0.00416706 151.48290253 -0.01307678 C165.46439866 -0.07782329 178.28245373 1.63992834 190.8359375 8.33007812 C191.50093262 8.67337158 192.16592773 9.01666504 192.85107422 9.37036133 C198.19417693 12.20493144 202.9024815 15.54010181 207.4609375 19.51757812 C208.42902344 20.28972656 209.39710938 21.061875 210.39453125 21.85742188 C223.95952906 33.1807103 232.79938126 52.27169473 234.694067 69.65669632 C235.05154034 75.11911164 235.00645276 80.58528056 234.97851562 86.05664062 C234.98394989 87.86701008 234.9910798 89.67737511 234.99975586 91.48773193 C235.0178372 96.3597087 235.01098511 101.23134289 234.99823952 106.10332489 C234.98803242 111.22921088 234.99752641 116.35506975 235.00378418 121.48095703 C235.01103831 130.08501388 235.00153179 138.68893288 234.98242188 147.29296875 C234.9606575 157.2059134 234.96771046 167.11852884 234.9897275 177.03146553 C235.00794544 185.57973081 235.0104087 194.12789763 234.99997282 202.67617607 C234.9937729 207.76539369 234.9928049 212.85445715 235.00611877 217.94366455 C235.01777025 222.73082961 235.00948383 227.51757488 234.98654175 232.30469513 C234.98130388 234.04963742 234.98268269 235.79461575 234.99159241 237.53954315 C235.05633892 251.52103929 233.33858728 264.33909436 226.6484375 276.89257812 C226.30514404 277.55757324 225.96185059 278.22256836 225.6081543 278.90771484 C222.77358418 284.25081756 219.43841382 288.95912212 215.4609375 293.51757812 C214.68878906 294.48566406 213.91664063 295.45375 213.12109375 296.45117188 C205.09351382 306.06799873 193.95243783 312.06386173 182.4609375 316.51757812 C181.38328125 316.95199219 180.305625 317.38640625 179.1953125 317.83398438 C166.18827635 322.17470458 151.99965615 320.87210193 138.4609375 320.51757812 C138.4923584 321.7174939 138.4923584 321.7174939 138.52441406 322.94165039 C139.09626995 348.08702247 136.66527597 369.8002464 119.4609375 389.51757812 C118.68878906 390.48566406 117.91664063 391.45375 117.12109375 392.45117188 C105.79780532 406.01616969 86.70682089 414.85602188 69.32181931 416.75070763 C63.85940399 417.10818097 58.39323507 417.06309339 52.921875 417.03515625 C51.11150554 417.04059051 49.30114052 417.04772042 47.49078369 417.05639648 C42.61880692 417.07447783 37.74717273 417.06762573 32.87519073 417.05488014 C27.74930474 417.04467305 22.62344588 417.05416704 17.49755859 417.0604248 C8.89350174 417.06767893 0.28958274 417.05817242 -8.31445312 417.0390625 C-18.22739778 417.01729813 -28.14001322 417.02435108 -38.05294991 417.04636812 C-46.60121518 417.06458606 -55.14938201 417.06704932 -63.69766045 417.05661345 C-68.78687807 417.05041353 -73.87594153 417.04944552 -78.96514893 417.0627594 C-83.75231398 417.07441087 -88.53905926 417.06612446 -93.3261795 417.04318237 C-95.0711218 417.0379445 -96.81610012 417.03932331 -98.56102753 417.04823303 C-112.54252366 417.11297954 -125.36057873 415.39522791 -137.9140625 408.70507812 C-138.57905762 408.36178467 -139.24405273 408.01849121 -139.92919922 407.66479492 C-145.27230193 404.83022481 -149.9806065 401.49505444 -154.5390625 397.51757812 C-155.50714844 396.74542969 -156.47523438 395.97328125 -157.47265625 395.17773438 C-171.03765406 383.85444595 -179.87750626 364.76346152 -181.772192 347.37845993 C-182.12966534 341.91604461 -182.08457776 336.44987569 -182.05664062 330.97851562 C-182.06207489 329.16814617 -182.0692048 327.35778114 -182.07788086 325.54742432 C-182.0959622 320.67544755 -182.08911011 315.80381336 -182.07636452 310.93183136 C-182.06615742 305.80594537 -182.07565141 300.6800865 -182.08190918 295.55419922 C-182.08916331 286.95014237 -182.07965679 278.34622337 -182.06054688 269.7421875 C-182.0387825 259.82924285 -182.04583546 249.91662741 -182.0678525 240.00369072 C-182.08607044 231.45542544 -182.0885337 222.90725862 -182.07809782 214.35898018 C-182.0718979 209.26976256 -182.0709299 204.1806991 -182.08424377 199.0914917 C-182.09589525 194.30432664 -182.08760883 189.51758137 -182.06466675 184.73046112 C-182.05942888 182.98551883 -182.06080769 181.2405405 -182.06971741 179.4956131 C-182.13446392 165.51411696 -180.41671228 152.69606189 -173.7265625 140.14257812 C-173.38326904 139.47758301 -173.03997559 138.81258789 -172.6862793 138.12744141 C-169.85170918 132.78433869 -166.51653882 128.07603413 -162.5390625 123.51757812 C-161.76691406 122.54949219 -160.99476563 121.58140625 -160.19921875 120.58398438 C-152.17163882 110.96715752 -141.03056283 104.97129452 -129.5390625 100.51757812 C-127.92257813 99.86595703 -127.92257813 99.86595703 -126.2734375 99.20117188 C-113.26640135 94.86045167 -99.07778115 96.16305432 -85.5390625 96.51757812 C-85.5704834 95.31766235 -85.5704834 95.31766235 -85.60253906 94.09350586 C-86.17439495 68.94813378 -83.74340097 47.23490985 -66.5390625 27.51757812 C-65.76691406 26.54949219 -64.99476563 25.58140625 -64.19921875 24.58398438 C-48.32013906 5.56127003 -23.5684078 -0.12034191 0 0 Z M-41.7890625 49.83007812 C-51.53978055 61.23181417 -53.62604397 74.2587904 -53.5625 88.83398438 C-53.56080811 89.5742688 -53.55911621 90.31455322 -53.55737305 91.07727051 C-53.55298392 92.89071134 -53.54625919 94.70414626 -53.5390625 96.51757812 C-52.90867286 96.51904469 -52.27828321 96.52051125 -51.62879086 96.52202225 C-36.22648401 96.55921863 -20.82443765 96.6184015 -5.42231655 96.70148087 C2.0263202 96.74113934 9.47485332 96.7735983 16.92358398 96.78857422 C23.42267239 96.8016597 29.9215315 96.82879779 36.42049068 96.87219119 C39.85555962 96.89465274 43.29034741 96.91049815 46.72549629 96.90946198 C63.88136255 96.92009033 79.3693138 97.08839084 94.8359375 105.33007812 C95.50020752 105.67264648 96.16447754 106.01521484 96.84887695 106.36816406 C102.19345571 109.20137181 106.88831784 112.55778378 111.4609375 116.51757812 C112.26402344 117.12472656 113.06710937 117.731875 113.89453125 118.35742188 C123.06504327 126.07628512 129.50058892 137.3213029 133.4609375 148.51757812 C133.79322357 149.40438766 134.12550964 150.2911972 134.46786499 151.20487976 C138.56834477 163.97680072 138.07245227 176.98589015 138.06844234 190.27962375 C138.07160719 193.74298145 138.09729818 197.20617728 138.12042236 200.66944885 C138.16071606 207.20319334 138.18125974 213.73683871 138.19439626 220.27068812 C138.2103575 227.7195917 138.24881052 235.16832876 138.28898954 242.61713493 C138.3710232 257.91723292 138.4253424 273.21729725 138.4609375 288.51757812 C140.98441679 288.53799891 143.50772715 288.55278943 146.03125 288.56445312 C146.73677002 288.5707373 147.44229004 288.57702148 148.16918945 288.58349609 C164.32833532 288.63931352 176.95893322 284.74515628 188.625 273.41601562 C201.79523034 259.45655799 202.61324387 243.27128374 202.60620117 225.01464844 C202.60919789 223.45807821 202.61260159 221.90150872 202.61637878 220.34494019 C202.62517121 216.13811885 202.6275549 211.93131789 202.62819457 207.72448826 C202.62890782 205.08991093 202.63104733 202.45533869 202.63369179 199.82076263 C202.64292972 190.6116249 202.64702865 181.40250159 202.64624023 172.19335938 C202.64563998 163.63819513 202.6561856 155.08309404 202.6719839 146.52794576 C202.68510263 139.15861697 202.69042231 131.78930872 202.68978482 124.41996837 C202.6895311 120.02939933 202.69231273 115.63888647 202.70296288 111.24832916 C202.71271703 107.11470729 202.71267345 102.98119446 202.70544624 98.84756851 C202.70440941 97.34044102 202.70670894 95.83330646 202.7128067 94.32619095 C202.78389541 75.52074418 200.83354012 60.22839941 187.359375 46.35351562 C173.39991737 33.18328528 157.21464311 32.36527176 138.95800781 32.37231445 C137.40143758 32.36931774 135.84486809 32.36591404 134.28829956 32.36213684 C130.08147823 32.35334442 125.87467727 32.35096073 121.66784763 32.35032105 C119.0332703 32.34960781 116.39869807 32.34746829 113.76412201 32.34482384 C104.55498427 32.3355859 95.34586096 32.33148697 86.13671875 32.33227539 C77.5815545 32.33287565 69.02645341 32.32233003 60.47130513 32.30653173 C53.10197635 32.293413 45.7326681 32.28809331 38.36332774 32.2887308 C33.9727587 32.28898453 29.58224584 32.2862029 25.19168854 32.27555275 C21.05806666 32.2657986 16.92455384 32.26584217 12.79092789 32.27306938 C11.28380039 32.27410622 9.77666584 32.27180668 8.26955032 32.26570892 C-11.90357679 32.18945009 -27.54941198 34.73711522 -41.7890625 49.83007812 Z M-137.7890625 145.83007812 C-149.33639011 159.33263053 -149.69084959 175.10998643 -149.68432617 192.02050781 C-149.68732289 193.57707804 -149.69072659 195.13364753 -149.69450378 196.69021606 C-149.70329621 200.8970374 -149.7056799 205.10383836 -149.70631957 209.31066799 C-149.70703282 211.94524532 -149.70917233 214.57981756 -149.71181679 217.21439362 C-149.72105472 226.42353135 -149.72515365 235.63265466 -149.72436523 244.84179688 C-149.72376498 253.39696112 -149.7343106 261.95206221 -149.7501089 270.50721049 C-149.76322763 277.87653928 -149.76854731 285.24584753 -149.76790982 292.61518788 C-149.7676561 297.00575692 -149.77043773 301.39626978 -149.78108788 305.78682709 C-149.79084203 309.92044896 -149.79079845 314.05396179 -149.78357124 318.18758774 C-149.78253441 319.69471523 -149.78483394 321.20184979 -149.7909317 322.7089653 C-149.86202041 341.51441207 -147.91166512 356.80675684 -134.4375 370.68164062 C-120.47804237 383.85187097 -104.29276811 384.66988449 -86.03613281 384.6628418 C-84.47956258 384.66583851 -82.92299309 384.66924221 -81.36642456 384.67301941 C-77.15960323 384.68181183 -72.95280227 384.68419552 -68.74597263 384.6848352 C-66.1113953 384.68554844 -63.47682307 384.68768796 -60.84224701 384.69033241 C-51.63310927 384.69957035 -42.42398596 384.70366928 -33.21484375 384.70288086 C-24.6596795 384.7022806 -16.10457841 384.71282622 -7.54943013 384.72862452 C-0.18010135 384.74174325 7.1892069 384.74706294 14.55854726 384.74642545 C18.9491163 384.74617172 23.33962916 384.74895335 27.73018646 384.7596035 C31.86380834 384.76935765 35.99732116 384.76931408 40.13094711 384.76208687 C41.63807461 384.76105003 43.14520916 384.76334957 44.65232468 384.76944733 C63.45777145 384.84053603 78.75011621 382.89018075 92.625 369.41601562 C105.79523034 355.45655799 106.61324387 339.27128374 106.60620117 321.01464844 C106.60919789 319.45807821 106.61260159 317.90150872 106.61637878 316.34494019 C106.62517121 312.13811885 106.6275549 307.93131789 106.62819457 303.72448826 C106.62890782 301.08991093 106.63104733 298.45533869 106.63369179 295.82076263 C106.64292972 286.6116249 106.64702865 277.40250159 106.64624023 268.19335938 C106.64563998 259.63819513 106.6561856 251.08309404 106.6719839 242.52794576 C106.68510263 235.15861697 106.69042231 227.78930872 106.68978482 220.41996837 C106.6895311 216.02939933 106.69231273 211.63888647 106.70296288 207.24832916 C106.71271703 203.11470729 106.71267345 198.98119446 106.70544624 194.84756851 C106.70440941 193.34044102 106.70670894 191.83330646 106.7128067 190.32619095 C106.78389541 171.52074418 104.83354012 156.22839941 91.359375 142.35351562 C77.39991737 129.18328528 61.21464311 128.36527176 42.95800781 128.37231445 C41.40143758 128.36931774 39.84486809 128.36591404 38.28829956 128.36213684 C34.08147823 128.35334442 29.87467727 128.35096073 25.66784763 128.35032105 C23.0332703 128.34960781 20.39869807 128.34746829 17.76412201 128.34482384 C8.55498427 128.3355859 -0.65413904 128.33148697 -9.86328125 128.33227539 C-18.4184455 128.33287565 -26.97354659 128.32233003 -35.52869487 128.30653173 C-42.89802365 128.293413 -50.2673319 128.28809331 -57.63667226 128.2887308 C-62.0272413 128.28898453 -66.41775416 128.2862029 -70.80831146 128.27555275 C-74.94193334 128.2657986 -79.07544616 128.26584217 -83.20907211 128.27306938 C-84.71619961 128.27410622 -86.22333416 128.27180668 -87.73044968 128.26570892 C-107.90357679 128.18945009 -123.54941198 130.73711522 -137.7890625 145.83007812 Z " style="fill: rgb(0, 191, 255);" transform="matrix(1, 0, 0, 1, 229.5390625, 47.482421875)"/>
</svg>